<?xml version="1.0" encoding="utf-8"?>
<!-- Generator: Adobe Illustrator 22.1.0, SVG Export Plug-In . SVG Version: 6.00 Build 0)  -->
<svg version="1.1" id="Layer_1" xmlns="http://www.w3.org/2000/svg" xmlns:xlink="http://www.w3.org/1999/xlink" x="0px" y="0px"
	 viewBox="0 0 56.8 56.8" style="enable-background:new 0 0 56.8 56.8;" xml:space="preserve">
<style type="text/css">
	.st0{fill:#7D141B;}
	.st1{fill:none;stroke:#FFFFFF;stroke-width:3;stroke-linecap:round;stroke-linejoin:round;stroke-miterlimit:10;}
</style>
<path class="st0" d="M-275.5-14.6c-0.4,0-0.8-0.1-1.1-0.4c-0.6-0.6-0.6-1.5,0-2.1l35.8-35.8c0.6-0.6,1.5-0.6,2.1,0s0.6,1.5,0,2.1
	L-274.5-15C-274.7-14.7-275.1-14.6-275.5-14.6z"/>
<path class="st0" d="M-239.8-14.6c-0.4,0-0.8-0.1-1.1-0.4l-35.7-35.8c-0.6-0.6-0.6-1.5,0-2.1s1.5-0.6,2.1,0l35.8,35.8
	c0.6,0.6,0.6,1.5,0,2.1C-239-14.7-239.4-14.6-239.8-14.6z"/>
<polyline class="st1" points="22.8,15.3 36,28.4 22.8,41.5 "/>
<circle class="st1" cx="28.4" cy="28.4" r="26.9"/>
</svg>
