<?xml version="1.0" encoding="utf-8"?>
<!-- Generator: Adobe Illustrator 22.1.0, SVG Export Plug-In . SVG Version: 6.00 Build 0)  -->
<svg version="1.1" id="Layer_1" xmlns="http://www.w3.org/2000/svg" xmlns:xlink="http://www.w3.org/1999/xlink" x="0px" y="0px"
	 viewBox="0 0 34 43.3" style="enable-background:new 0 0 34 43.3;" xml:space="preserve">
<style type="text/css">
	.st0{fill:#7D141B;}
	.st1{fill:none;stroke:#7D141B;stroke-width:3;stroke-linecap:round;stroke-linejoin:round;stroke-miterlimit:10;}
</style>
<g>
	<path class="st0" d="M-181,12.3h-40c-0.8,0-1.5-0.7-1.5-1.5s0.7-1.5,1.5-1.5h40c0.8,0,1.5,0.7,1.5,1.5S-180.1,12.3-181,12.3z"/>
	<path class="st0" d="M-181,28.3h-40c-0.8,0-1.5-0.7-1.5-1.5s0.7-1.5,1.5-1.5h40c0.8,0,1.5,0.7,1.5,1.5S-180.1,28.3-181,28.3z"/>
	<path class="st0" d="M-181,44.3h-40c-0.8,0-1.5-0.7-1.5-1.5s0.7-1.5,1.5-1.5h40c0.8,0,1.5,0.7,1.5,1.5S-180.1,44.3-181,44.3z"/>
</g>
<g>
	<line class="st1" x1="-78.2" y1="10.8" x2="-38.2" y2="10.8"/>
	<line class="st1" x1="-78.2" y1="26.8" x2="-38.2" y2="26.8"/>
	<line class="st1" x1="-78.2" y1="42.8" x2="-38.2" y2="42.8"/>
</g>
<g>
	<path class="st0" d="M32.5,43.3h-31c-0.8,0-1.5-0.7-1.5-1.5v-31c0-0.8,0.7-1.5,1.5-1.5h31c0.8,0,1.5,0.7,1.5,1.5v31
		C34,42.6,33.4,43.3,32.5,43.3z M3,40.3h28v-28H3V40.3z"/>
	<path class="st0" d="M26.3,12.3c-0.8,0-1.5-0.7-1.5-1.5C24.8,6.5,21.3,3,17,3s-7.8,3.5-7.8,7.8c0,0.8-0.7,1.5-1.5,1.5
		s-1.5-0.7-1.5-1.5C6.2,4.8,11.1,0,17,0s10.8,4.8,10.8,10.8C27.8,11.6,27.1,12.3,26.3,12.3z"/>
</g>
<g>
	<rect x="-93.7" y="-42.8" class="st1" width="31" height="31"/>
	<path class="st1" d="M-87.5-42.7c0-5.1,4.1-9.3,9.3-9.3s9.3,4.1,9.3,9.3"/>
</g>
</svg>
