<?xml version="1.0" encoding="utf-8"?>
<!-- Generator: Adobe Illustrator 22.1.0, SVG Export Plug-In . SVG Version: 6.00 Build 0)  -->
<svg version="1.1" id="Layer_1" xmlns="http://www.w3.org/2000/svg" xmlns:xlink="http://www.w3.org/1999/xlink" x="0px" y="0px"
	 viewBox="0 0 24.2 42.5" style="enable-background:new 0 0 24.2 42.5;" xml:space="preserve">
<style type="text/css">
	.st0{fill:none;stroke:#7D141B;stroke-width:3;stroke-linecap:round;stroke-linejoin:round;stroke-miterlimit:10;}
	.st1{fill:#7D141B;}
	.st2{fill:none;stroke:#FFFFFF;stroke-linecap:round;stroke-linejoin:round;stroke-miterlimit:10;}
</style>
<g>
	<line class="st0" x1="287.8" y1="5.2" x2="327.8" y2="5.2"/>
	<line class="st0" x1="287.8" y1="21.2" x2="327.8" y2="21.2"/>
	<line class="st0" x1="287.8" y1="37.2" x2="327.8" y2="37.2"/>
</g>
<path class="st1" d="M-128.2,40.6c-0.4,0-0.8-0.1-1.1-0.4c-0.6-0.6-0.6-1.5,0-2.1l35.8-35.8c0.6-0.6,1.5-0.6,2.1,0s0.6,1.5,0,2.1
	l-35.8,35.8C-127.4,40.5-127.8,40.6-128.2,40.6z"/>
<path class="st1" d="M-92.5,40.6c-0.4,0-0.8-0.1-1.1-0.4l-35.7-35.8c-0.6-0.6-0.6-1.5,0-2.1s1.5-0.6,2.1,0l35.8,35.8
	c0.6,0.6,0.6,1.5,0,2.1C-91.7,40.5-92.1,40.6-92.5,40.6z"/>
<polyline class="st2" points="20.4,39.1 3,21.7 20.4,4.3 "/>
</svg>
