<?xml version="1.0" encoding="utf-8"?>
<!-- Generator: Adobe Illustrator 22.1.0, SVG Export Plug-In . SVG Version: 6.00 Build 0)  -->
<svg version="1.1" id="Layer_1" xmlns="http://www.w3.org/2000/svg" xmlns:xlink="http://www.w3.org/1999/xlink" x="0px" y="0px"
	 viewBox="0 0 42.5 42.5" style="enable-background:new 0 0 42.5 42.5;" xml:space="preserve">
<style type="text/css">
	.st0{fill:#7D141B;}
	.st1{fill:none;stroke:#7D141B;stroke-width:3;stroke-linecap:round;stroke-linejoin:round;stroke-miterlimit:10;}
</style>
<g>
	<path class="st0" d="M78.9-50.1h-40c-0.8,0-1.5-0.7-1.5-1.5s0.7-1.5,1.5-1.5h40c0.8,0,1.5,0.7,1.5,1.5S79.7-50.1,78.9-50.1z"/>
	<path class="st0" d="M78.9-34.1h-40c-0.8,0-1.5-0.7-1.5-1.5s0.7-1.5,1.5-1.5h40c0.8,0,1.5,0.7,1.5,1.5S79.7-34.1,78.9-34.1z"/>
	<path class="st0" d="M78.9-18.1h-40c-0.8,0-1.5-0.7-1.5-1.5s0.7-1.5,1.5-1.5h40c0.8,0,1.5,0.7,1.5,1.5S79.7-18.1,78.9-18.1z"/>
</g>
<g>
	<path class="st0" d="M203.3,6.7h-40c-0.8,0-1.5-0.7-1.5-1.5s0.7-1.5,1.5-1.5h40c0.8,0,1.5,0.7,1.5,1.5S204.1,6.7,203.3,6.7z"/>
	<path class="st0" d="M203.3,22.7h-40c-0.8,0-1.5-0.7-1.5-1.5s0.7-1.5,1.5-1.5h40c0.8,0,1.5,0.7,1.5,1.5S204.1,22.7,203.3,22.7z"/>
	<path class="st0" d="M203.3,38.7h-40c-0.8,0-1.5-0.7-1.5-1.5s0.7-1.5,1.5-1.5h40c0.8,0,1.5,0.7,1.5,1.5S204.1,38.7,203.3,38.7z"/>
</g>
<g>
	<line class="st1" x1="306" y1="5.2" x2="346" y2="5.2"/>
	<line class="st1" x1="306" y1="21.2" x2="346" y2="21.2"/>
	<line class="st1" x1="306" y1="37.2" x2="346" y2="37.2"/>
</g>
<path class="st0" d="M3.4,40.6c-0.4,0-0.8-0.1-1.1-0.4c-0.6-0.6-0.6-1.5,0-2.1L38.1,2.3c0.6-0.6,1.5-0.6,2.1,0
	c0.6,0.6,0.6,1.5,0,2.1L4.4,40.2C4.2,40.5,3.8,40.6,3.4,40.6z"/>
<path class="st0" d="M39.1,40.6c-0.4,0-0.8-0.1-1.1-0.4L2.3,4.4c-0.6-0.6-0.6-1.5,0-2.1c0.6-0.6,1.5-0.6,2.1,0l35.8,35.8
	c0.6,0.6,0.6,1.5,0,2.1C39.9,40.5,39.5,40.6,39.1,40.6z"/>
</svg>
