<?xml version="1.0" encoding="utf-8"?>
<!-- Generator: Adobe Illustrator 22.1.0, SVG Export Plug-In . SVG Version: 6.00 Build 0)  -->
<svg version="1.1" id="Layer_1" xmlns="http://www.w3.org/2000/svg" xmlns:xlink="http://www.w3.org/1999/xlink" x="0px" y="0px"
	 viewBox="0 0 36.3 36.2" style="enable-background:new 0 0 36.3 36.2;" xml:space="preserve">
<style type="text/css">
	.st0{fill:#7D141B;}
	.st1{fill:none;stroke:#7D141B;stroke-width:3;stroke-linecap:round;stroke-linejoin:round;stroke-miterlimit:10;}
</style>
<g>
	<path class="st0" d="M-234.2,4.2h-40c-0.8,0-1.5-0.7-1.5-1.5s0.7-1.5,1.5-1.5h40c0.8,0,1.5,0.7,1.5,1.5S-233.3,4.2-234.2,4.2z"/>
	<path class="st0" d="M-234.2,20.2h-40c-0.8,0-1.5-0.7-1.5-1.5s0.7-1.5,1.5-1.5h40c0.8,0,1.5,0.7,1.5,1.5S-233.3,20.2-234.2,20.2z"
		/>
	<path class="st0" d="M-234.2,36.2h-40c-0.8,0-1.5-0.7-1.5-1.5s0.7-1.5,1.5-1.5h40c0.8,0,1.5,0.7,1.5,1.5S-233.3,36.2-234.2,36.2z"
		/>
</g>
<g>
	<circle class="st1" cx="14.9" cy="14.9" r="13.4"/>
	<line class="st1" x1="24.3" y1="24.3" x2="34.8" y2="34.7"/>
</g>
</svg>
